<mxfile host="app.diagrams.net" modified="2022-10-26T02:02:03.046Z" agent="5.0 (Windows NT 10.0; Win64; x64) AppleWebKit/537.36 (KHTML, like Gecko) Chrome/106.0.0.0 Safari/537.36" etag="AiBYI8dAMeTJkG2o-M7l" version="20.5.1" type="github">
  <diagram id="0hAh1a4XYFvLYpV_YO1f" name="Page-1">
    <mxGraphModel dx="1021" dy="612" grid="1" gridSize="10" guides="1" tooltips="1" connect="1" arrows="1" fold="1" page="1" pageScale="1" pageWidth="850" pageHeight="1100" math="0" shadow="0">
      <root>
        <mxCell id="0" />
        <mxCell id="1" parent="0" />
        <mxCell id="ZYETZD_ZwVdtpqaLK3ul-1" value="Users" style="rounded=0;whiteSpace=wrap;html=1;fontStyle=4;fillColor=#dae8fc;strokeColor=#6c8ebf;" vertex="1" parent="1">
          <mxGeometry x="130" y="220" width="120" height="60" as="geometry" />
        </mxCell>
        <mxCell id="ZYETZD_ZwVdtpqaLK3ul-2" value="Reguster" style="ellipse;whiteSpace=wrap;html=1;aspect=fixed;fillColor=#fff2cc;strokeColor=#d6b656;" vertex="1" parent="1">
          <mxGeometry x="310" y="210" width="80" height="80" as="geometry" />
        </mxCell>
        <mxCell id="ZYETZD_ZwVdtpqaLK3ul-3" value="Login" style="rounded=0;whiteSpace=wrap;html=1;fillColor=#dae8fc;strokeColor=#6c8ebf;" vertex="1" parent="1">
          <mxGeometry x="450" y="220" width="120" height="60" as="geometry" />
        </mxCell>
        <mxCell id="ZYETZD_ZwVdtpqaLK3ul-4" value="Dashbard" style="ellipse;whiteSpace=wrap;html=1;aspect=fixed;fillColor=#dae8fc;strokeColor=#6c8ebf;" vertex="1" parent="1">
          <mxGeometry x="630" y="210" width="80" height="80" as="geometry" />
        </mxCell>
        <mxCell id="ZYETZD_ZwVdtpqaLK3ul-5" value="" style="endArrow=classic;html=1;rounded=0;entryX=0.07;entryY=0.757;entryDx=0;entryDy=0;entryPerimeter=0;" edge="1" parent="1" target="ZYETZD_ZwVdtpqaLK3ul-2">
          <mxGeometry relative="1" as="geometry">
            <mxPoint x="250" y="270" as="sourcePoint" />
            <mxPoint x="310" y="270" as="targetPoint" />
            <Array as="points">
              <mxPoint x="250" y="270" />
              <mxPoint x="290" y="270" />
            </Array>
          </mxGeometry>
        </mxCell>
        <mxCell id="ZYETZD_ZwVdtpqaLK3ul-9" value="" style="endArrow=classic;html=1;rounded=0;entryX=0.07;entryY=0.757;entryDx=0;entryDy=0;entryPerimeter=0;" edge="1" parent="1">
          <mxGeometry relative="1" as="geometry">
            <mxPoint x="315.5999999999999" y="230.56000000000006" as="sourcePoint" />
            <mxPoint x="250" y="230" as="targetPoint" />
            <Array as="points">
              <mxPoint x="250" y="230" />
            </Array>
          </mxGeometry>
        </mxCell>
        <mxCell id="ZYETZD_ZwVdtpqaLK3ul-10" value="" style="endArrow=classic;html=1;rounded=0;entryX=0.07;entryY=0.757;entryDx=0;entryDy=0;entryPerimeter=0;" edge="1" parent="1">
          <mxGeometry relative="1" as="geometry">
            <mxPoint x="384.4" y="270" as="sourcePoint" />
            <mxPoint x="449.9999999999999" y="270.56000000000006" as="targetPoint" />
            <Array as="points">
              <mxPoint x="384.4" y="270" />
              <mxPoint x="424.4" y="270" />
            </Array>
          </mxGeometry>
        </mxCell>
        <mxCell id="ZYETZD_ZwVdtpqaLK3ul-11" value="" style="endArrow=classic;html=1;rounded=0;entryX=0.07;entryY=0.757;entryDx=0;entryDy=0;entryPerimeter=0;" edge="1" parent="1">
          <mxGeometry relative="1" as="geometry">
            <mxPoint x="570.0000000000001" y="270" as="sourcePoint" />
            <mxPoint x="635.6" y="270.56000000000006" as="targetPoint" />
            <Array as="points">
              <mxPoint x="570" y="270" />
              <mxPoint x="610" y="270" />
            </Array>
          </mxGeometry>
        </mxCell>
      </root>
    </mxGraphModel>
  </diagram>
</mxfile>
